<svg xmlns="http://www.w3.org/2000/svg" width="14.019" height="13.92" viewBox="0 0 14.019 13.92">
  <g id="Group_3829" data-name="Group 3829" transform="translate(-768.75 -63.592)">
    <path id="Path_3379" data-name="Path 3379" d="M17.953,11.67a.726.726,0,0,1,.1-.371,1.023,1.023,0,0,1,.065-.094,4.86,4.86,0,0,0,.857-2.748,5.235,5.235,0,0,0-5.4-5.082,5.338,5.338,0,0,0-5.29,4.044A4.8,4.8,0,0,0,8.177,8.46a5.217,5.217,0,0,0,5.312,5.146,6.519,6.519,0,0,0,1.466-.234c.351-.094.7-.219.789-.253a.836.836,0,0,1,.289-.052.822.822,0,0,1,.314.061l1.761.612a.427.427,0,0,0,.121.03.245.245,0,0,0,.248-.243.384.384,0,0,0-.016-.082Z" transform="translate(763.391 60.617)" fill="rgba(0,0,0,0)" stroke="#03498a" stroke-width="0.8"/>
    <path id="Path_3380" data-name="Path 3380" d="M12.556,20c-.122.034-.278.071-.448.109a6.264,6.264,0,0,1-1.154.153,5.757,5.757,0,0,1-5.8-5.739,6.417,6.417,0,0,1,.051-.726c.02-.146.044-.292.078-.434s.075-.305.119-.455l-.272.241a5.051,5.051,0,0,0-1.751,3.8,5,5,0,0,0,.842,2.783c.078.119.122.21.109.272s-.4,2.1-.4,2.1a.272.272,0,0,0,.092.261.276.276,0,0,0,.173.061.243.243,0,0,0,.1-.02l1.9-.75a.53.53,0,0,1,.407.007,5.712,5.712,0,0,0,2.06.407,5.331,5.331,0,0,0,4.076-1.87s.109-.149.234-.326C12.841,19.914,12.7,19.959,12.556,20Z" transform="translate(765.375 55.089)" fill="#03498a"/>
  </g>
</svg>
